<svg width="283" height="113" viewBox="0 0 283 113" fill="none" xmlns="http://www.w3.org/2000/svg">
<path fill-rule="evenodd" clip-rule="evenodd" d="M99.0126 20.2816V18.2032L93.267 20.3387H93.2561V22.4716H93.267L99.0126 24.6072V22.526L96.0664 21.3997L99.0126 20.2789V20.2816Z" fill="#F7DD43"/>
<path fill-rule="evenodd" clip-rule="evenodd" d="M132.292 24.5037V22.4253L135.236 21.3072L132.292 20.189V18.1106L138.03 20.2462H138.043V22.3817H138.03L132.292 24.5064V24.5037ZM129.827 15.1698L126.454 26H128.456L131.83 15.1698H129.827Z" fill="#F7DD43"/>
<path fill-rule="evenodd" clip-rule="evenodd" d="M107.454 17.9175C108.026 18.5432 108.325 19.3702 108.289 20.2163V24.8302H106.287V20.6407C106.312 20.1727 106.162 19.7157 105.868 19.3512C105.591 19.0274 105.18 18.8479 104.753 18.8669C103.499 18.8669 102.87 19.7375 102.87 21.4758V24.8302H100.868V17.2564H102.87V17.9392C103.507 17.3217 104.369 16.9925 105.256 17.0306C106.083 16.9952 106.883 17.319 107.454 17.9175V17.9175Z" fill="#F7DD43"/>
<path fill-rule="evenodd" clip-rule="evenodd" d="M110.841 14V24.8302H112.844V14H110.841Z" fill="#F7DD43"/>
<path fill-rule="evenodd" clip-rule="evenodd" d="M124.166 24.8302H122.496L120.858 20.3686L119.204 24.8302H117.534L114.726 17.2428H116.867L118.445 21.7806L120.072 17.2428H121.636L123.263 21.7942L124.841 17.2428H126.982L124.172 24.8302H124.166Z" fill="#F7DD43"/>
<path d="M147.58 28.9981C145.653 28.9981 143.629 28.6331 142.043 27.754V12.2441C143.605 11.3899 145.628 11 147.58 11C149.531 11 151.507 11.365 153.066 12.2441V18.195H149.139V14.1456C148.677 13.9507 148.115 13.878 147.555 13.878C146.995 13.878 146.481 13.9507 145.993 14.1456V25.8525C146.456 26.0475 146.993 26.1201 147.555 26.1201C148.117 26.1201 148.652 26.0475 149.139 25.8525V21.805H153.066V27.7559C151.53 28.6102 149.506 28.9752 147.58 29V28.9981Z" fill="#F7DD43"/>
<path d="M160.431 28.9981C158.358 28.9981 156.359 28.5585 154.773 27.6565V12.3167C156.334 11.4395 158.335 11 160.431 11C162.528 11 164.479 11.4147 166.04 12.3167V27.6565C164.504 28.5585 162.48 28.9732 160.431 28.9981ZM162.115 14.1952C161.652 14.0003 161.091 13.9029 160.408 13.9029C159.726 13.9029 159.189 14.0003 158.725 14.1952V25.7799C159.187 25.9997 159.749 26.0971 160.408 26.0971C161.068 26.0971 161.628 25.9997 162.115 25.7799V14.1952Z" fill="#F7DD43"/>
<path d="M172.893 22.4127H171.844V28.7783H167.869V11.2198H172.893C175.284 11.2198 177.088 11.7071 178.502 12.7066V20.9259C177.113 21.9024 175.282 22.4127 172.893 22.4127ZM174.552 14.243C174.187 13.9755 173.698 13.8532 172.868 13.8532H171.794V19.7793H172.868C173.673 19.7793 174.16 19.657 174.552 19.4143V14.243Z" fill="#F7DD43"/>
<path d="M186.817 28.7783V22.4127H183.891V28.7783H179.941V12.2919C181.38 11.4376 183.404 11 185.355 11C187.306 11 189.305 11.4395 190.744 12.2919V28.7783H186.817ZM186.817 14.0481C186.402 13.8532 185.89 13.7557 185.353 13.7557C184.816 13.7557 184.304 13.8532 183.889 14.0481V19.6321H186.815V14.0481H186.817Z" fill="#F7DD43"/>
<path d="M78.3379 61.4082L74.9688 61.4521C74.832 62.0283 74.6416 62.5654 74.3975 63.0635C74.1533 63.5615 73.8457 63.9912 73.4746 64.3525C73.1035 64.7041 72.6689 64.9824 72.1709 65.1875C71.6729 65.3828 71.1064 65.4658 70.4717 65.4365C69.915 65.417 69.4512 65.2998 69.0801 65.085C68.709 64.8604 68.4062 64.5674 68.1719 64.2061C67.9473 63.8545 67.7812 63.4492 67.6738 62.9902C67.5762 62.5312 67.5127 62.0625 67.4834 61.584C67.4639 61.0957 67.4688 60.6123 67.498 60.1338C67.5371 59.6553 67.5859 59.2158 67.6445 58.8154L68.084 55.8564C68.1621 55.3877 68.2598 54.8945 68.377 54.377C68.5039 53.8594 68.665 53.3467 68.8604 52.8389C69.0557 52.3506 69.2852 51.8818 69.5488 51.4326C69.8223 50.9834 70.1396 50.5928 70.501 50.2607C70.8623 49.9385 71.2773 49.6846 71.7461 49.499C72.2148 49.3037 72.7471 49.2158 73.3428 49.2354C73.958 49.2549 74.4658 49.3818 74.8662 49.6162C75.2764 49.8506 75.6035 50.1533 75.8477 50.5244C76.082 50.9053 76.2432 51.3447 76.3311 51.8428C76.4287 52.3408 76.4824 52.8633 76.4922 53.4102H79.9053C79.876 52.4238 79.7246 51.5059 79.4512 50.6562C79.1875 49.8066 78.7969 49.0693 78.2793 48.4443C77.7617 47.8096 77.1123 47.3115 76.3311 46.9502C75.5498 46.5791 74.6318 46.3838 73.5771 46.3643C72.6787 46.3447 71.8486 46.4619 71.0869 46.7158C70.335 46.96 69.6514 47.3018 69.0361 47.7412C68.4014 48.1807 67.835 48.708 67.3369 49.3232C66.8486 49.9287 66.4238 50.5879 66.0625 51.3008C65.7012 52.0137 65.3984 52.7607 65.1543 53.542C64.9102 54.3232 64.7246 55.1045 64.5977 55.8857L64.1582 58.8008C64.0605 59.543 64.0215 60.29 64.041 61.042C64.0605 61.7842 64.1582 62.502 64.334 63.1953C64.5 63.8887 64.7393 64.543 65.0518 65.1582C65.3643 65.7734 65.7646 66.3057 66.2529 66.7549C66.7314 67.2236 67.3027 67.5947 67.9668 67.8682C68.6309 68.1416 69.3926 68.2881 70.252 68.3076C71.3066 68.3369 72.2881 68.1855 73.1963 67.8535C74.1143 67.5215 74.9248 67.0479 75.6279 66.4326C76.3311 65.8271 76.917 65.0996 77.3857 64.25C77.8545 63.3906 78.1719 62.4434 78.3379 61.4082ZM96.6338 58.7422L97.0732 55.9443C97.1709 55.2217 97.2051 54.4844 97.1758 53.7324C97.1465 52.9805 97.0537 52.2529 96.8975 51.5498C96.7217 50.8564 96.4775 50.2021 96.165 49.5869C95.8525 48.9619 95.457 48.415 94.9785 47.9463C94.4902 47.4775 93.9141 47.1064 93.25 46.833C92.5957 46.5498 91.8438 46.3984 90.9941 46.3789C90.1055 46.3594 89.2852 46.4766 88.5332 46.7305C87.791 46.9746 87.1172 47.3213 86.5117 47.7705C85.9062 48.2197 85.3594 48.7568 84.8711 49.3818C84.3926 50.0068 83.9775 50.6758 83.626 51.3887C83.2744 52.1016 82.9814 52.8486 82.7471 53.6299C82.5127 54.4014 82.332 55.1729 82.2051 55.9443L81.7656 58.7568C81.668 59.4795 81.6289 60.2119 81.6484 60.9541C81.6777 61.6963 81.7705 62.4141 81.9268 63.1074C82.083 63.8105 82.3125 64.4746 82.6152 65.0996C82.9277 65.7148 83.3184 66.252 83.7871 66.7109C84.2559 67.1797 84.8174 67.5557 85.4717 67.8389C86.126 68.1221 86.873 68.2734 87.7129 68.293C88.6113 68.3125 89.4316 68.2002 90.1738 67.9561C90.9258 67.7021 91.6143 67.3555 92.2393 66.916C92.8545 66.4668 93.4062 65.9346 93.8945 65.3193C94.3926 64.6943 94.8223 64.0254 95.1836 63.3125C95.5449 62.5996 95.8428 61.8574 96.0771 61.0859C96.3213 60.3047 96.5068 59.5234 96.6338 58.7422ZM93.6016 55.8857L93.1621 58.7568C93.084 59.2256 92.9814 59.7139 92.8545 60.2217C92.7373 60.7295 92.5859 61.2275 92.4004 61.7158C92.2051 62.2139 91.9707 62.6875 91.6973 63.1367C91.4238 63.5859 91.1113 63.9766 90.7598 64.3086C90.3984 64.6406 89.9883 64.9043 89.5293 65.0996C89.0703 65.2852 88.5527 65.3682 87.9766 65.3486C87.4395 65.3291 86.9902 65.207 86.6289 64.9824C86.2676 64.748 85.9746 64.4502 85.75 64.0889C85.5352 63.7373 85.374 63.332 85.2666 62.873C85.1689 62.4141 85.1055 61.9453 85.0762 61.4668C85.0566 60.9883 85.0615 60.5195 85.0908 60.0605C85.1201 59.5918 85.1641 59.1621 85.2227 58.7715L85.6768 55.915C85.7451 55.4561 85.8379 54.9727 85.9551 54.4648C86.0723 53.957 86.2236 53.4541 86.4092 52.9561C86.585 52.4678 86.8047 52.0039 87.0684 51.5645C87.332 51.125 87.6396 50.7344 87.9912 50.3926C88.333 50.0605 88.7285 49.8018 89.1777 49.6162C89.6367 49.4209 90.1543 49.333 90.7305 49.3525C91.2773 49.3721 91.7314 49.4941 92.0928 49.7188C92.4639 49.9434 92.7666 50.2314 93.001 50.583C93.2256 50.9346 93.3965 51.335 93.5137 51.7842C93.6309 52.2334 93.7041 52.6924 93.7334 53.1611C93.7627 53.6396 93.7627 54.1133 93.7334 54.582C93.7041 55.0508 93.6602 55.4854 93.6016 55.8857ZM103.68 59.8701L107.356 59.8848C108.362 59.8848 109.334 59.7383 110.271 59.4453C111.209 59.1426 112.049 58.708 112.791 58.1416C113.523 57.585 114.124 56.8965 114.593 56.0762C115.071 55.2461 115.354 54.2988 115.442 53.2344C115.53 52.2578 115.433 51.374 115.149 50.583C114.876 49.7822 114.461 49.0986 113.904 48.5322C113.338 47.9658 112.654 47.5264 111.854 47.2139C111.062 46.8916 110.193 46.7158 109.246 46.6865L102.508 46.6719L98.8164 68H102.259L103.68 59.8701ZM104.163 56.999L105.467 49.543L109.129 49.5576C109.656 49.5869 110.115 49.7041 110.506 49.9092C110.896 50.1045 111.214 50.3682 111.458 50.7002C111.692 51.0322 111.854 51.418 111.941 51.8574C112.039 52.2871 112.059 52.7559 112 53.2637C111.922 53.8398 111.751 54.3623 111.487 54.8311C111.224 55.29 110.892 55.6807 110.491 56.0029C110.091 56.335 109.637 56.5889 109.129 56.7646C108.621 56.9404 108.084 57.0283 107.518 57.0283L104.163 56.999ZM127.132 63.0928L127.659 68H131.116L128.201 46.6719H125.14L114.71 68H118.387L120.657 63.0928H127.132ZM122.034 60.0752L125.916 51.667L126.824 60.0752H122.034ZM164.822 68L165.262 65.1729H155.74L161.131 60.1045C161.678 59.5869 162.249 59.0449 162.845 58.4785C163.44 57.9121 163.992 57.3115 164.5 56.6768C165.008 56.042 165.438 55.3682 165.789 54.6553C166.141 53.9424 166.351 53.1807 166.419 52.3701C166.487 51.4717 166.395 50.6611 166.141 49.9385C165.896 49.2061 165.521 48.5762 165.013 48.0488C164.505 47.5312 163.885 47.1309 163.152 46.8477C162.42 46.5547 161.614 46.3984 160.735 46.3789C159.729 46.3594 158.772 46.5156 157.864 46.8477C156.956 47.1699 156.15 47.6289 155.447 48.2246C154.734 48.8301 154.153 49.5527 153.704 50.3926C153.255 51.2324 152.986 52.1602 152.898 53.1758L156.312 53.1611C156.39 52.5947 156.531 52.0723 156.736 51.5938C156.951 51.1055 157.234 50.6855 157.586 50.334C157.918 49.9824 158.323 49.7139 158.802 49.5283C159.28 49.333 159.827 49.2451 160.442 49.2646C160.901 49.2842 161.302 49.3818 161.644 49.5576C161.985 49.7334 162.264 49.9678 162.479 50.2607C162.693 50.5537 162.84 50.8955 162.918 51.2861C163.006 51.667 163.025 52.0771 162.977 52.5166C162.898 53.0635 162.723 53.5908 162.449 54.0986C162.186 54.5967 161.868 55.0752 161.497 55.5342C161.116 55.9932 160.711 56.4277 160.281 56.8379C159.861 57.248 159.466 57.6338 159.095 57.9951L151.316 65.4365L150.921 68H164.822ZM183.821 59.8408L184.612 54.8164C184.681 54.2695 184.71 53.7178 184.7 53.1611C184.7 52.5947 184.656 52.0674 184.568 51.5791C184.471 50.9346 184.3 50.3096 184.056 49.7041C183.821 49.0986 183.499 48.5664 183.089 48.1074C182.659 47.5898 182.117 47.1748 181.463 46.8623C180.809 46.5498 180.027 46.3838 179.119 46.3643C178.338 46.3447 177.62 46.4277 176.966 46.6133C176.312 46.7988 175.716 47.0625 175.179 47.4043C174.749 47.6973 174.358 48.0342 174.007 48.415C173.655 48.7861 173.338 49.1963 173.055 49.6455C172.547 50.3682 172.137 51.1787 171.824 52.0771C171.521 52.9658 171.302 53.8789 171.165 54.8164L170.374 59.8701C170.296 60.4268 170.257 60.9834 170.257 61.54C170.267 62.0869 170.315 62.6191 170.403 63.1367C170.491 63.7031 170.633 64.2451 170.828 64.7627C171.023 65.2705 171.282 65.7344 171.604 66.1543C172.024 66.7793 172.586 67.2871 173.289 67.6777C173.992 68.0684 174.852 68.2783 175.867 68.3076C176.6 68.3271 177.273 68.2539 177.889 68.0879C178.514 67.9219 179.08 67.6875 179.588 67.3848C180.223 67.0137 180.784 66.5449 181.272 65.9785C181.761 65.4121 182.176 64.7871 182.518 64.1035C182.84 63.4688 183.108 62.79 183.323 62.0674C183.538 61.335 183.704 60.5928 183.821 59.8408ZM178.87 49.2061C179.456 49.2256 179.92 49.3672 180.262 49.6309C180.604 49.8945 180.867 50.2266 181.053 50.627C181.219 51.0371 181.321 51.4912 181.36 51.9893C181.399 52.4775 181.404 52.9561 181.375 53.4248L173.992 58.4785C174.012 58.3906 174.026 58.3027 174.036 58.2148C174.056 58.1172 174.09 57.9023 174.139 57.5703L174.695 54.1719C174.764 53.6934 174.861 53.2051 174.988 52.707C175.125 52.209 175.311 51.7402 175.545 51.3008C175.682 51.0273 175.838 50.7734 176.014 50.5391C176.199 50.2949 176.404 50.0801 176.629 49.8945C176.912 49.6699 177.239 49.4941 177.61 49.3672C177.981 49.2402 178.401 49.1865 178.87 49.2061ZM176.102 65.4805C175.525 65.4609 175.066 65.3242 174.725 65.0703C174.383 64.8164 174.124 64.4893 173.948 64.0889C173.763 63.6982 173.646 63.2637 173.597 62.7852C173.558 62.2969 173.553 61.8184 173.582 61.3496L180.965 56.3105C180.916 56.584 180.877 56.7988 180.848 56.9551C180.828 57.1113 180.799 57.3066 180.76 57.541L180.291 60.4707C180.223 60.8613 180.14 61.2617 180.042 61.6719C179.944 62.082 179.822 62.4775 179.676 62.8584C179.52 63.2686 179.31 63.6592 179.046 64.0303C178.792 64.3916 178.489 64.6943 178.138 64.9385C177.864 65.1436 177.557 65.29 177.215 65.3779C176.883 65.4658 176.512 65.5 176.102 65.4805ZM200.037 68L200.477 65.1729H190.955L196.346 60.1045C196.893 59.5869 197.464 59.0449 198.06 58.4785C198.655 57.9121 199.207 57.3115 199.715 56.6768C200.223 56.042 200.652 55.3682 201.004 54.6553C201.355 53.9424 201.565 53.1807 201.634 52.3701C201.702 51.4717 201.609 50.6611 201.355 49.9385C201.111 49.2061 200.735 48.5762 200.228 48.0488C199.72 47.5312 199.1 47.1309 198.367 46.8477C197.635 46.5547 196.829 46.3984 195.95 46.3789C194.944 46.3594 193.987 46.5156 193.079 46.8477C192.171 47.1699 191.365 47.6289 190.662 48.2246C189.949 48.8301 189.368 49.5527 188.919 50.3926C188.47 51.2324 188.201 52.1602 188.113 53.1758L191.526 53.1611C191.604 52.5947 191.746 52.0723 191.951 51.5938C192.166 51.1055 192.449 50.6855 192.801 50.334C193.133 49.9824 193.538 49.7139 194.017 49.5283C194.495 49.333 195.042 49.2451 195.657 49.2646C196.116 49.2842 196.517 49.3818 196.858 49.5576C197.2 49.7334 197.479 49.9678 197.693 50.2607C197.908 50.5537 198.055 50.8955 198.133 51.2861C198.221 51.667 198.24 52.0771 198.191 52.5166C198.113 53.0635 197.938 53.5908 197.664 54.0986C197.4 54.5967 197.083 55.0752 196.712 55.5342C196.331 55.9932 195.926 56.4277 195.496 56.8379C195.076 57.248 194.681 57.6338 194.31 57.9951L186.531 65.4365L186.136 68H200.037ZM217.645 68L218.084 65.1729H208.562L213.953 60.1045C214.5 59.5869 215.071 59.0449 215.667 58.4785C216.263 57.9121 216.814 57.3115 217.322 56.6768C217.83 56.042 218.26 55.3682 218.611 54.6553C218.963 53.9424 219.173 53.1807 219.241 52.3701C219.31 51.4717 219.217 50.6611 218.963 49.9385C218.719 49.2061 218.343 48.5762 217.835 48.0488C217.327 47.5312 216.707 47.1309 215.975 46.8477C215.242 46.5547 214.437 46.3984 213.558 46.3789C212.552 46.3594 211.595 46.5156 210.687 46.8477C209.778 47.1699 208.973 47.6289 208.27 48.2246C207.557 48.8301 206.976 49.5527 206.526 50.3926C206.077 51.2324 205.809 52.1602 205.721 53.1758L209.134 53.1611C209.212 52.5947 209.354 52.0723 209.559 51.5938C209.773 51.1055 210.057 50.6855 210.408 50.334C210.74 49.9824 211.146 49.7139 211.624 49.5283C212.103 49.333 212.649 49.2451 213.265 49.2646C213.724 49.2842 214.124 49.3818 214.466 49.5576C214.808 49.7334 215.086 49.9678 215.301 50.2607C215.516 50.5537 215.662 50.8955 215.74 51.2861C215.828 51.667 215.848 52.0771 215.799 52.5166C215.721 53.0635 215.545 53.5908 215.271 54.0986C215.008 54.5967 214.69 55.0752 214.319 55.5342C213.938 55.9932 213.533 56.4277 213.104 56.8379C212.684 57.248 212.288 57.6338 211.917 57.9951L204.139 65.4365L203.743 68H217.645ZM16.6387 98.1338L16.668 97.8262C16.7363 97.2305 16.7607 96.625 16.7412 96.0098C16.7217 95.3848 16.6533 94.7793 16.5361 94.1934C16.4092 93.6074 16.2236 93.0557 15.9795 92.5381C15.7451 92.0205 15.4375 91.5615 15.0566 91.1611C14.666 90.7705 14.2021 90.4629 13.665 90.2383C13.1279 90.0039 12.498 89.877 11.7754 89.8574C11.2285 89.8477 10.7109 89.9062 10.2227 90.0332C9.73438 90.1602 9.28027 90.3555 8.86035 90.6191C8.60645 90.7656 8.35742 90.9414 8.11328 91.1465C7.87891 91.3418 7.6543 91.5566 7.43945 91.791L7.70312 90.1357L4.58301 90.1504L0.774414 112.094H4.20215L5.62305 104.535C5.79883 104.76 5.99414 104.965 6.20898 105.15C6.42383 105.326 6.64844 105.482 6.88281 105.619C7.26367 105.844 7.66895 106.01 8.09863 106.117C8.53809 106.234 8.99707 106.298 9.47559 106.308C10.1885 106.327 10.8428 106.234 11.4385 106.029C12.0439 105.834 12.5908 105.556 13.0791 105.194C13.6357 104.804 14.124 104.32 14.5439 103.744C14.9736 103.168 15.335 102.553 15.6279 101.898C15.8916 101.303 16.1064 100.688 16.2725 100.053C16.4482 99.4082 16.5703 98.7686 16.6387 98.1338ZM13.2402 97.8262L13.2109 98.1338C13.1621 98.5244 13.0889 98.9297 12.9912 99.3496C12.8936 99.7598 12.7617 100.16 12.5957 100.551C12.4199 100.99 12.2002 101.405 11.9365 101.796C11.6729 102.187 11.3652 102.514 11.0137 102.777C10.7109 103.002 10.3691 103.178 9.98828 103.305C9.60742 103.432 9.1875 103.49 8.72852 103.48C8.38672 103.471 8.06934 103.422 7.77637 103.334C7.4834 103.246 7.21973 103.119 6.98535 102.953C6.78027 102.797 6.59473 102.611 6.42871 102.396C6.2627 102.182 6.12109 101.928 6.00391 101.635L7.24902 94.5596C7.43457 94.3154 7.62988 94.0908 7.83496 93.8857C8.0498 93.6709 8.27441 93.4902 8.50879 93.3438C8.81152 93.1387 9.13867 92.9873 9.49023 92.8896C9.8418 92.7822 10.2178 92.7334 10.6182 92.7432C11.0479 92.7529 11.4092 92.8311 11.7021 92.9775C12.0049 93.1143 12.2637 93.3047 12.4785 93.5488C12.6738 93.7734 12.8301 94.0469 12.9473 94.3691C13.0645 94.6914 13.1523 95.0283 13.2109 95.3799C13.2793 95.7803 13.3135 96.1953 13.3135 96.625C13.3135 97.0449 13.2891 97.4453 13.2402 97.8262ZM20.1982 98.0312L20.1689 98.3389C20.0908 99.0615 20.0859 99.7695 20.1543 100.463C20.2324 101.146 20.3838 101.791 20.6084 102.396C20.7842 102.855 20.999 103.28 21.2529 103.671C21.5068 104.052 21.8047 104.423 22.1465 104.784C22.5957 105.224 23.167 105.585 23.8604 105.868C24.5537 106.142 25.3252 106.288 26.1748 106.308C27.3467 106.337 28.4111 106.137 29.3682 105.707C30.3252 105.268 31.1602 104.677 31.873 103.935C32.5762 103.192 33.1475 102.328 33.5869 101.342C34.0264 100.346 34.3145 99.3008 34.4512 98.207L34.4805 97.8848C34.5586 97.1621 34.5635 96.4541 34.4951 95.7607C34.4268 95.0674 34.2803 94.4131 34.0557 93.7979C33.8799 93.2998 33.6455 92.8359 33.3525 92.4062C33.0596 91.9766 32.7227 91.5859 32.3418 91.2344C31.873 90.8242 31.3115 90.4971 30.6572 90.2529C30.0127 89.999 29.2852 89.8672 28.4746 89.8574C27.3027 89.8281 26.2432 90.0283 25.2959 90.458C24.3486 90.8877 23.5283 91.4639 22.835 92.1865C22.1025 92.9385 21.5117 93.8223 21.0625 94.8379C20.623 95.8535 20.335 96.918 20.1982 98.0312ZM23.582 98.3389L23.6113 98.0312C23.6895 97.4062 23.8408 96.7764 24.0654 96.1416C24.29 95.4971 24.5879 94.916 24.959 94.3984C25.3301 93.8711 25.7891 93.4512 26.3359 93.1387C26.8828 92.8164 27.5225 92.665 28.2549 92.6846C28.8896 92.7139 29.4023 92.8799 29.793 93.1826C30.1934 93.4854 30.4961 93.8711 30.7012 94.3398C30.9355 94.8965 31.0674 95.4873 31.0967 96.1123C31.126 96.7373 31.1113 97.333 31.0527 97.8994L31.0234 98.207C30.9551 98.7637 30.8086 99.3789 30.584 100.053C30.3594 100.717 30.0615 101.303 29.6904 101.811C29.3096 102.328 28.8457 102.748 28.2988 103.07C27.752 103.383 27.1172 103.529 26.3945 103.51C25.7402 103.48 25.208 103.31 24.7979 102.997C24.3975 102.685 24.1045 102.289 23.9189 101.811C23.7041 101.303 23.5771 100.741 23.5381 100.126C23.5088 99.501 23.5234 98.9053 23.582 98.3389ZM50.2568 89.8281C49.6807 89.8281 49.1338 89.8965 48.6162 90.0332C48.0986 90.1699 47.6055 90.3652 47.1367 90.6191C46.6777 90.873 46.2432 91.1807 45.833 91.542C45.4229 91.8936 45.0371 92.2842 44.6758 92.7139L44.7783 92.1572L45.1006 90.1504H41.9072L39.1533 106H42.5664L44.2656 96.2002C44.5488 95.7217 44.8613 95.2969 45.2031 94.9258C45.5547 94.5547 45.9404 94.252 46.3604 94.0176C46.7705 93.7832 47.2197 93.6074 47.708 93.4902C48.1963 93.3633 48.7188 93.3047 49.2754 93.3145C49.7832 93.3242 50.2812 93.3633 50.7695 93.4316C51.2676 93.5 51.7607 93.5928 52.249 93.71L53.1572 90.2529C52.6787 90.1064 52.1953 90.0039 51.707 89.9453C51.2285 89.877 50.7451 89.8379 50.2568 89.8281ZM76.4043 103.1L79.6123 84.6719H76.1553L72.4639 106H85.7646L86.2773 103.1H76.4043ZM95.5205 106.308C96.5068 106.327 97.3906 106.103 98.1719 105.634C98.9629 105.155 99.6562 104.54 100.252 103.788L99.9297 106H103.021L105.774 90.1504H102.347L100.384 101.386C100.169 101.698 99.9346 101.977 99.6807 102.221C99.4365 102.465 99.1729 102.675 98.8896 102.851C98.5576 103.046 98.1963 103.192 97.8057 103.29C97.415 103.388 97 103.432 96.5605 103.422C96.0039 103.402 95.5742 103.275 95.2715 103.041C94.9785 102.807 94.7734 102.509 94.6562 102.147C94.5293 101.786 94.4658 101.381 94.4658 100.932C94.4756 100.482 94.5049 100.033 94.5537 99.584L96.1211 90.1504H92.708L91.1406 99.54C91.0527 100.36 91.0479 101.171 91.126 101.972C91.2041 102.763 91.4189 103.49 91.7705 104.154C92.1123 104.779 92.5859 105.292 93.1914 105.692C93.7969 106.083 94.5732 106.288 95.5205 106.308ZM114.578 103.495C114.158 103.485 113.792 103.412 113.479 103.275C113.177 103.139 112.918 102.963 112.703 102.748C112.439 102.484 112.239 102.167 112.103 101.796C111.976 101.425 111.883 101.039 111.824 100.639C111.775 100.268 111.756 99.8867 111.766 99.4961C111.775 99.1055 111.8 98.7295 111.839 98.3682L111.897 97.8555C111.966 97.3867 112.063 96.9131 112.19 96.4346C112.327 95.9463 112.508 95.4922 112.732 95.0723C112.889 94.7695 113.079 94.4766 113.304 94.1934C113.528 93.9004 113.777 93.6465 114.051 93.4316C114.373 93.1875 114.734 93.002 115.135 92.875C115.535 92.7383 115.979 92.6748 116.468 92.6846C116.927 92.7041 117.327 92.7969 117.669 92.9629C118.021 93.1289 118.313 93.3535 118.548 93.6367C118.782 93.9199 118.953 94.252 119.061 94.6328C119.178 95.0039 119.222 95.4043 119.192 95.834L122.4 95.8486C122.449 94.9795 122.342 94.1836 122.078 93.4609C121.814 92.7285 121.434 92.0938 120.936 91.5566C120.428 91.0391 119.817 90.6338 119.104 90.3408C118.392 90.0381 117.596 89.877 116.717 89.8574C115.594 89.8281 114.563 90.0137 113.626 90.4141C112.688 90.8047 111.873 91.3516 111.18 92.0547C110.438 92.8359 109.837 93.7197 109.378 94.7061C108.919 95.6924 108.621 96.7422 108.484 97.8555L108.426 98.3828C108.377 98.9395 108.362 99.4863 108.382 100.023C108.411 100.561 108.484 101.073 108.602 101.562C108.768 102.274 109.036 102.938 109.407 103.554C109.778 104.159 110.232 104.682 110.77 105.121C111.219 105.473 111.746 105.756 112.352 105.971C112.967 106.186 113.655 106.298 114.417 106.308C115.237 106.327 116.048 106.21 116.849 105.956C117.659 105.702 118.396 105.331 119.061 104.843C119.715 104.364 120.257 103.778 120.687 103.085C121.126 102.392 121.375 101.615 121.434 100.756L118.226 100.771C118.147 101.2 117.991 101.586 117.757 101.928C117.532 102.27 117.254 102.558 116.922 102.792C116.59 103.026 116.224 103.207 115.823 103.334C115.423 103.451 115.008 103.505 114.578 103.495ZM135.042 106H138.455L138.47 105.736C138.304 105.189 138.23 104.633 138.25 104.066C138.279 103.49 138.338 102.919 138.426 102.353L139.583 95.3066C139.671 94.4277 139.578 93.6514 139.305 92.9775C139.041 92.3037 138.65 91.7373 138.133 91.2783C137.605 90.8193 136.98 90.4727 136.258 90.2383C135.535 89.9941 134.769 89.8623 133.958 89.8428C133.196 89.833 132.42 89.9258 131.629 90.1211C130.848 90.3066 130.135 90.5996 129.49 91C128.836 91.4102 128.289 91.9277 127.85 92.5527C127.42 93.168 127.171 93.8955 127.103 94.7354L130.516 94.7207C130.594 94.3496 130.726 94.0273 130.911 93.7539C131.097 93.4707 131.326 93.2412 131.6 93.0654C131.863 92.8701 132.166 92.7285 132.508 92.6406C132.85 92.5527 133.211 92.5137 133.592 92.5234C134.021 92.5332 134.407 92.6016 134.749 92.7285C135.091 92.8457 135.374 93.0215 135.599 93.2559C135.833 93.4902 135.999 93.7783 136.097 94.1201C136.204 94.4521 136.229 94.833 136.17 95.2627L135.979 96.3613L133.387 96.332C132.791 96.332 132.19 96.3711 131.585 96.4492C130.979 96.5176 130.394 96.6348 129.827 96.8008C129.261 96.9668 128.724 97.1865 128.216 97.46C127.708 97.7236 127.264 98.0557 126.883 98.4561C126.492 98.8564 126.175 99.3252 125.931 99.8623C125.696 100.39 125.564 101 125.535 101.693C125.496 102.396 125.599 103.031 125.843 103.598C126.087 104.154 126.434 104.628 126.883 105.019C127.312 105.419 127.825 105.731 128.421 105.956C129.017 106.171 129.646 106.283 130.311 106.293C130.906 106.303 131.468 106.234 131.995 106.088C132.532 105.941 133.04 105.731 133.519 105.458C133.763 105.321 134.002 105.165 134.236 104.989C134.471 104.804 134.7 104.613 134.925 104.418C134.905 104.691 134.9 104.955 134.91 105.209C134.92 105.463 134.964 105.727 135.042 106ZM131.131 103.495C130.799 103.485 130.491 103.437 130.208 103.349C129.935 103.251 129.7 103.114 129.505 102.938C129.31 102.763 129.168 102.543 129.08 102.279C128.992 102.006 128.968 101.693 129.007 101.342C129.046 101.039 129.119 100.771 129.227 100.536C129.344 100.292 129.48 100.072 129.637 99.877C129.803 99.6914 129.993 99.5303 130.208 99.3936C130.423 99.2568 130.647 99.1299 130.882 99.0127C131.312 98.8369 131.771 98.7148 132.259 98.6465C132.747 98.5781 133.216 98.5439 133.665 98.5439L135.672 98.5586L135.13 101.503C134.915 101.786 134.671 102.045 134.397 102.279C134.134 102.514 133.855 102.714 133.562 102.88C133.201 103.085 132.815 103.241 132.405 103.349C131.995 103.456 131.57 103.505 131.131 103.495ZM153.543 101.62C153.475 102.03 153.313 102.367 153.06 102.631C152.806 102.895 152.503 103.1 152.151 103.246C151.8 103.402 151.424 103.515 151.023 103.583C150.623 103.642 150.257 103.671 149.925 103.671C149.485 103.671 149.075 103.622 148.694 103.524C148.313 103.417 147.977 103.256 147.684 103.041C147.391 102.826 147.156 102.558 146.98 102.235C146.805 101.903 146.712 101.503 146.702 101.034L143.406 101.02C143.396 101.898 143.572 102.665 143.934 103.319C144.305 103.964 144.788 104.506 145.384 104.945C145.979 105.395 146.658 105.731 147.42 105.956C148.182 106.181 148.958 106.298 149.749 106.308C150.472 106.317 151.229 106.239 152.02 106.073C152.811 105.917 153.543 105.668 154.217 105.326C154.949 104.945 155.564 104.433 156.062 103.788C156.57 103.144 156.849 102.357 156.897 101.43C156.927 100.746 156.805 100.16 156.531 99.6719C156.258 99.1738 155.896 98.7539 155.447 98.4121C155.203 98.1973 154.925 98.0117 154.612 97.8555C154.31 97.6895 153.992 97.5381 153.66 97.4014C153.26 97.2451 152.845 97.1133 152.415 97.0059C151.995 96.8887 151.585 96.7861 151.185 96.6982C150.901 96.6396 150.579 96.5713 150.218 96.4932C149.866 96.415 149.534 96.3027 149.222 96.1562C148.919 96.0098 148.67 95.8145 148.475 95.5703C148.289 95.3164 148.23 94.9893 148.299 94.5889C148.357 94.208 148.499 93.8857 148.724 93.6221C148.958 93.3486 149.241 93.1289 149.573 92.9629C149.896 92.8066 150.242 92.6943 150.613 92.626C150.994 92.5479 151.355 92.5088 151.697 92.5088C152.078 92.5186 152.439 92.5723 152.781 92.6699C153.123 92.7676 153.421 92.9092 153.675 93.0947C153.929 93.2998 154.129 93.5537 154.275 93.8564C154.422 94.1494 154.495 94.4961 154.495 94.8965L157.879 94.9111C157.889 94.0615 157.723 93.3242 157.381 92.6992C157.039 92.0645 156.59 91.5371 156.033 91.1172C155.457 90.707 154.803 90.3994 154.07 90.1943C153.348 89.9795 152.596 89.8672 151.814 89.8574C151.16 89.8477 150.486 89.9209 149.793 90.0771C149.1 90.2236 148.45 90.4385 147.845 90.7217C147.063 91.0928 146.395 91.625 145.838 92.3184C145.291 93.002 145.003 93.8125 144.974 94.75C144.944 95.502 145.096 96.1416 145.428 96.6689C145.77 97.1963 146.209 97.6357 146.746 97.9873C147.205 98.29 147.688 98.5439 148.196 98.749C148.704 98.9443 149.241 99.1152 149.808 99.2617C150.13 99.3398 150.467 99.4229 150.818 99.5107C151.18 99.5986 151.556 99.6963 151.946 99.8037C152.161 99.8721 152.366 99.96 152.562 100.067C152.767 100.165 152.947 100.277 153.104 100.404C153.27 100.551 153.396 100.727 153.484 100.932C153.572 101.127 153.592 101.356 153.543 101.62ZM186.722 92.5967L184.026 84.6719H180.174L184.363 95.0869L176.512 106H180.745L186.121 97.9434L188.963 106H192.815L188.509 95.4092L196.17 84.6719H191.966L186.722 92.5967ZM205.472 106H208.885L208.899 105.736C208.733 105.189 208.66 104.633 208.68 104.066C208.709 103.49 208.768 102.919 208.855 102.353L210.013 95.3066C210.101 94.4277 210.008 93.6514 209.734 92.9775C209.471 92.3037 209.08 91.7373 208.562 91.2783C208.035 90.8193 207.41 90.4727 206.688 90.2383C205.965 89.9941 205.198 89.8623 204.388 89.8428C203.626 89.833 202.85 89.9258 202.059 90.1211C201.277 90.3066 200.564 90.5996 199.92 91C199.266 91.4102 198.719 91.9277 198.279 92.5527C197.85 93.168 197.601 93.8955 197.532 94.7354L200.945 94.7207C201.023 94.3496 201.155 94.0273 201.341 93.7539C201.526 93.4707 201.756 93.2412 202.029 93.0654C202.293 92.8701 202.596 92.7285 202.938 92.6406C203.279 92.5527 203.641 92.5137 204.021 92.5234C204.451 92.5332 204.837 92.6016 205.179 92.7285C205.521 92.8457 205.804 93.0215 206.028 93.2559C206.263 93.4902 206.429 93.7783 206.526 94.1201C206.634 94.4521 206.658 94.833 206.6 95.2627L206.409 96.3613L203.816 96.332C203.221 96.332 202.62 96.3711 202.015 96.4492C201.409 96.5176 200.823 96.6348 200.257 96.8008C199.69 96.9668 199.153 97.1865 198.646 97.46C198.138 97.7236 197.693 98.0557 197.312 98.4561C196.922 98.8564 196.604 99.3252 196.36 99.8623C196.126 100.39 195.994 101 195.965 101.693C195.926 102.396 196.028 103.031 196.272 103.598C196.517 104.154 196.863 104.628 197.312 105.019C197.742 105.419 198.255 105.731 198.851 105.956C199.446 106.171 200.076 106.283 200.74 106.293C201.336 106.303 201.897 106.234 202.425 106.088C202.962 105.941 203.47 105.731 203.948 105.458C204.192 105.321 204.432 105.165 204.666 104.989C204.9 104.804 205.13 104.613 205.354 104.418C205.335 104.691 205.33 104.955 205.34 105.209C205.35 105.463 205.394 105.727 205.472 106ZM201.561 103.495C201.229 103.485 200.921 103.437 200.638 103.349C200.364 103.251 200.13 103.114 199.935 102.938C199.739 102.763 199.598 102.543 199.51 102.279C199.422 102.006 199.397 101.693 199.437 101.342C199.476 101.039 199.549 100.771 199.656 100.536C199.773 100.292 199.91 100.072 200.066 99.877C200.232 99.6914 200.423 99.5303 200.638 99.3936C200.853 99.2568 201.077 99.1299 201.312 99.0127C201.741 98.8369 202.2 98.7148 202.688 98.6465C203.177 98.5781 203.646 98.5439 204.095 98.5439L206.102 98.5586L205.56 101.503C205.345 101.786 205.101 102.045 204.827 102.279C204.563 102.514 204.285 102.714 203.992 102.88C203.631 103.085 203.245 103.241 202.835 103.349C202.425 103.456 202 103.505 201.561 103.495ZM218.348 106H221.351L229.861 90.1504H226.214L220.677 101.562L220.267 102.675L220.223 101.635L218.128 90.1357L214.759 90.1504L218.348 106ZM234.241 90.1504L233.729 93.0654H238.46L236.731 103.1H232L231.487 106H244.188L244.7 103.1H240.174L242.415 90.1504H234.241ZM239.368 86.1074C239.368 86.6836 239.559 87.1426 239.939 87.4844C240.33 87.8262 240.804 87.9873 241.36 87.9678C241.927 87.958 242.4 87.7725 242.781 87.4111C243.162 87.0498 243.353 86.5762 243.353 85.9902C243.353 85.4141 243.162 84.9502 242.781 84.5986C242.4 84.2471 241.932 84.0811 241.375 84.1006C240.799 84.1104 240.32 84.3057 239.939 84.6865C239.568 85.0674 239.378 85.541 239.368 86.1074ZM255.687 106.293C256.937 106.303 258.152 106.068 259.334 105.59C260.516 105.102 261.463 104.359 262.176 103.363L260.477 101.532C259.891 102.147 259.222 102.631 258.47 102.982C257.718 103.324 256.907 103.48 256.038 103.451C255.433 103.441 254.9 103.319 254.441 103.085C253.992 102.841 253.621 102.523 253.328 102.133C253.035 101.742 252.82 101.293 252.684 100.785C252.547 100.268 252.498 99.7256 252.537 99.1592H263.128L263.362 97.6504C263.489 96.6445 263.47 95.6826 263.304 94.7646C263.138 93.8369 262.82 93.0117 262.352 92.2891C261.883 91.5664 261.258 90.9902 260.477 90.5605C259.695 90.1211 258.753 89.8867 257.649 89.8574C256.878 89.8379 256.141 89.9307 255.438 90.1357C254.744 90.3311 254.1 90.6143 253.504 90.9854C252.986 91.3174 252.503 91.708 252.054 92.1572C251.614 92.5967 251.219 93.0752 250.867 93.5928C250.428 94.2471 250.066 94.9551 249.783 95.7168C249.51 96.4785 249.329 97.2598 249.241 98.0605L249.168 98.6758C249.08 99.7207 249.163 100.702 249.417 101.62C249.681 102.538 250.101 103.334 250.677 104.008C251.243 104.701 251.951 105.253 252.801 105.663C253.65 106.073 254.612 106.283 255.687 106.293ZM257.43 92.6992C257.928 92.7188 258.362 92.8262 258.733 93.0215C259.114 93.2168 259.427 93.4805 259.671 93.8125C259.905 94.1348 260.066 94.5107 260.154 94.9404C260.252 95.3701 260.262 95.8242 260.184 96.3027L260.125 96.625L252.903 96.6104C253.099 96.1221 253.333 95.6387 253.606 95.1602C253.88 94.6816 254.202 94.2568 254.573 93.8857C254.935 93.5146 255.35 93.2168 255.818 92.9922C256.297 92.7676 256.834 92.6699 257.43 92.6992ZM279.153 89.8281C278.577 89.8281 278.03 89.8965 277.513 90.0332C276.995 90.1699 276.502 90.3652 276.033 90.6191C275.574 90.873 275.14 91.1807 274.729 91.542C274.319 91.8936 273.934 92.2842 273.572 92.7139L273.675 92.1572L273.997 90.1504H270.804L268.05 106H271.463L273.162 96.2002C273.445 95.7217 273.758 95.2969 274.1 94.9258C274.451 94.5547 274.837 94.252 275.257 94.0176C275.667 93.7832 276.116 93.6074 276.604 93.4902C277.093 93.3633 277.615 93.3047 278.172 93.3145C278.68 93.3242 279.178 93.3633 279.666 93.4316C280.164 93.5 280.657 93.5928 281.146 93.71L282.054 90.2529C281.575 90.1064 281.092 90.0039 280.604 89.9453C280.125 89.877 279.642 89.8379 279.153 89.8281Z" fill="url(#paint0_linear_122_251)"/>
<defs>
<linearGradient id="paint0_linear_122_251" x1="142" y1="37" x2="142" y2="113" gradientUnits="userSpaceOnUse">
<stop stop-color="white"/>
<stop offset="1" stop-color="#D9D9D9" stop-opacity="0.8"/>
</linearGradient>
</defs>
</svg>
